<?xml version="1.0" encoding="UTF-8"?>
<svg version="1.1" xmlns="http://www.w3.org/2000/svg" width="677" height="369">
<path d="M0 0 C1.77930777 0.7268295 3.55927888 1.45203682 5.33984375 2.17578125 C6.7163208 2.73579834 6.7163208 2.73579834 8.12060547 3.30712891 C13.58505966 5.49991994 19.09676296 7.56890724 24.60571289 9.64672852 C32.6259284 12.67764701 40.57251713 15.87304249 48.50390625 19.12890625 C49.64923828 19.59876953 50.79457031 20.06863281 51.97460938 20.55273438 C54.32958582 21.51951418 56.68375089 22.48827273 59.03710938 23.45898438 C64.682639 25.77126609 70.30769461 27.95791168 76.11645508 29.82250977 C79.58872681 30.99514048 82.70296642 32.73201866 85.9375 34.4375 C84.9375 37.4375 84.9375 37.4375 83.19433594 38.43310547 C82.44442383 38.72072754 81.69451172 39.00834961 80.921875 39.3046875 C80.08889893 39.63057861 79.25592285 39.95646973 78.39770508 40.29223633 C77.5033374 40.62892334 76.60896973 40.96561035 75.6875 41.3125 C74.77959717 41.66401123 73.87169434 42.01552246 72.9362793 42.37768555 C71.11286343 43.08230842 69.28759771 43.78216429 67.46044922 44.47705078 C65.31365899 45.29430187 63.17280147 46.12405566 61.03515625 46.96484375 C44.48955167 53.4375 44.48955167 53.4375 40.9375 53.4375 C40.95844727 54.71391357 40.97939453 55.99032715 41.00097656 57.30541992 C41.07346431 62.04830677 41.11933187 66.7911448 41.15722656 71.53442383 C41.17732199 73.58593993 41.20460324 75.63739889 41.23925781 77.6887207 C41.28786669 80.64028025 41.31048952 83.59108148 41.328125 86.54296875 C41.34877014 87.45773483 41.36941528 88.37250092 41.39068604 89.31498718 C41.39215328 93.49401764 41.32707201 95.80265917 39.10058594 99.4309082 C24.23162856 113.22413176 1.41704445 114.02172997 -17.64550781 113.53076172 C-29.77979967 113.06254965 -41.81146212 112.36207568 -53.0625 107.4375 C-53.82820313 107.10492188 -54.59390625 106.77234375 -55.3828125 106.4296875 C-60.5805445 103.99385 -64.82718891 101.29046664 -68.0625 96.4375 C-68.29132003 93.84967634 -68.41133945 91.36022424 -68.44140625 88.76953125 C-68.45840073 88.01588791 -68.4753952 87.26224457 -68.49290466 86.48576355 C-68.54600327 84.07392794 -68.58625422 81.66210542 -68.625 79.25 C-68.66919761 76.85584221 -68.71623117 74.46180523 -68.76780701 72.0677948 C-68.79927442 70.57969749 -68.82630662 69.09149704 -68.84803772 67.60322571 C-68.94156088 62.81650863 -69.40188983 58.18024837 -70.0625 53.4375 C-70.65417969 53.25574219 -71.24585938 53.07398438 -71.85546875 52.88671875 C-72.64566406 52.63535156 -73.43585938 52.38398438 -74.25 52.125 C-75.02730469 51.88136719 -75.80460937 51.63773438 -76.60546875 51.38671875 C-79.0625 50.4375 -79.0625 50.4375 -81.49609375 48.9453125 C-84.28508647 47.30672621 -86.82552013 46.49207836 -89.9375 45.625 C-97.52748478 43.39060586 -104.76368451 40.46605414 -112.0625 37.4375 C-112.0625 36.1175 -112.0625 34.7975 -112.0625 33.4375 C-111.02351562 33.05078125 -109.98453125 32.6640625 -108.9140625 32.265625 C-102.09119683 29.72026901 -95.28135623 27.15957427 -88.53125 24.42578125 C-85.65679162 23.27508826 -82.76709898 22.16809609 -79.875 21.0625 C-70.12970413 17.32222799 -60.43954958 13.49435703 -50.875 9.3125 C-45.59377273 7.0235708 -40.2872698 5.12456112 -34.80859375 3.37109375 C-30.76658312 1.99692513 -26.9426212 0.20712537 -23.0625 -1.5625 C-14.12572885 -5.57828667 -8.62985107 -3.59139909 0 0 Z " fill="#EFBCBD" transform="translate(352.0625,128.5625)"/>
<path d="M0 0 C2.475 0.99 2.475 0.99 5 2 C5 2.66 5 3.32 5 4 C5.7115625 4.27972656 6.423125 4.55945313 7.15625 4.84765625 C9.00227955 5.59570394 10.83686276 6.3728962 12.65625 7.18359375 C33.0025504 16.15497071 55.13759215 17.21614549 76.75 12.8125 C77.73677734 12.61640137 78.72355469 12.42030273 79.74023438 12.21826172 C85.45072276 10.95196383 90.15204034 9.14049827 95.15820312 6.10473633 C97.34769533 4.79144733 99.62453873 3.92379049 102 3 C103.6829392 2.02763513 105.35443434 1.03435556 107 0 C108.6889627 5.83584672 109.33577965 12.48873425 106.4375 17.9375 C87.9665495 33.56676581 61.69327185 33.19350765 38.92626953 31.48608398 C30.17197328 30.73145709 22.12329536 29.55556378 14 26 C13.23429687 25.66742188 12.46859375 25.33484375 11.6796875 24.9921875 C6.4819555 22.55635 2.23531109 19.85296664 -1 15 C-1.23046875 12.44140625 -1.23046875 12.44140625 -1.1875 9.5625 C-1.18105469 8.61503906 -1.17460937 7.66757813 -1.16796875 6.69140625 C-1.01959281 4.3139406 -0.67263878 2.27620963 0 0 Z " fill="#EEBEBF" transform="translate(285,210)"/>
<path d="M0 0 C2.86724686 0.57344937 3.8614515 0.8614515 6 3 C8.58971701 10.36024836 10.60921076 18.16197221 9.375 25.9375 C8.60573278 31.37935333 9.7919638 36.47349369 10.88232422 41.79663086 C11.78090132 46.26018136 12.34628183 50.4188617 12 55 C9.49383652 58.13270435 6.89675236 60.81916595 3 62 C-0.0625 62.0625 -0.0625 62.0625 -3 61 C-7.36858003 54.15589129 -6.63762557 46.68152425 -5 39 C-3.77050361 33.04889595 -3.88485607 27.23801559 -4.07421875 21.19335938 C-4.16469215 17.18121188 -4.04344814 14.46229514 -2 11 C-1.5876181 8.71116951 -1.5876181 8.71116951 -1.4375 6.375 C-1.09722222 2.19444444 -1.09722222 2.19444444 0 0 Z " fill="#FAFAFA" transform="translate(267,185)"/>
<path d="M0 0 C3.33702908 0.59056947 6.3123764 1.41146822 9.44140625 2.70703125 C10.67963135 3.21327026 10.67963135 3.21327026 11.94287109 3.72973633 C12.80734863 4.08704834 13.67182617 4.44436035 14.5625 4.8125 C21.20383457 7.52132307 27.83724312 10.02109452 34.671875 12.20703125 C37.60283373 13.20532759 40.25733088 14.5690422 43 16 C44.67816596 16.75039941 46.36671652 17.47781088 48.0625 18.1875 C48.87847656 18.53167969 49.69445312 18.87585938 50.53515625 19.23046875 C55.4022693 20.74999533 58.66901591 19.97276579 63.25 17.9375 C64.29414063 17.48375 65.33828125 17.03 66.4140625 16.5625 C67.59742188 16.046875 68.78078125 15.53125 70 15 C72.86956832 13.79922961 75.74696227 12.61780282 78.625 11.4375 C79.72171021 10.98636841 79.72171021 10.98636841 80.84057617 10.52612305 C86.21384719 8.31702404 91.59365095 6.12708815 97 4 C97.73863281 3.7009375 98.47726562 3.401875 99.23828125 3.09375 C102.75407694 1.70542848 105.16624145 1 109 1 C109.495 4.96 109.495 4.96 110 9 C109.505 7.515 109.505 7.515 109 6 C100.15076718 9.203445 91.53298378 12.59396946 83.01953125 16.625 C79.30787115 18.31517381 75.54500827 19.72137269 71.69140625 21.05078125 C69.8273108 21.70821985 67.98113017 22.41789037 66.15234375 23.16796875 C65.21519531 23.54566406 64.27804687 23.92335937 63.3125 24.3125 C62.48363281 24.65925781 61.65476562 25.00601563 60.80078125 25.36328125 C54.35339608 26.8290048 48.72442771 24.75144815 42.8125 22.25 C41.50162497 21.70495196 40.19042072 21.1606951 38.87890625 20.6171875 C38.22937988 20.34487305 37.57985352 20.07255859 36.91064453 19.79199219 C28.38298357 16.25714269 19.68745775 13.11634256 11 10 C11 9.34 11 8.68 11 8 C9.63875 7.7834375 9.63875 7.7834375 8.25 7.5625 C5.78523044 7.13590527 3.41152893 6.64925779 1 6 C0.67 6.66 0.34 7.32 0 8 C0 5.36 0 2.72 0 0 Z " fill="#FDF6F4" transform="translate(283,182)"/>
<path d="M0 0 C2.475 0.99 2.475 0.99 5 2 C5 2.66 5 3.32 5 4 C5.7115625 4.27972656 6.423125 4.55945313 7.15625 4.84765625 C9.00227955 5.59570394 10.83686276 6.3728962 12.65625 7.18359375 C33.0025504 16.15497071 55.13759215 17.21614549 76.75 12.8125 C77.73677734 12.61640137 78.72355469 12.42030273 79.74023438 12.21826172 C85.45072276 10.95196383 90.15204034 9.14049827 95.15820312 6.10473633 C97.34769533 4.79144733 99.62453873 3.92379049 102 3 C103.6829392 2.02763513 105.35443434 1.03435556 107 0 C107.625 2.625 107.625 2.625 107 6 C97.86441816 14.02449756 83.87768977 18.57123442 72 20 C70.77667969 20.17402344 69.55335938 20.34804687 68.29296875 20.52734375 C49.76502112 22.80860816 29.70866816 21.69532731 13 13 C11.52964092 12.43486199 10.05080809 11.89101923 8.5625 11.375 C5.51096005 10.19721265 3.43598693 9.13148857 1 7 C0.34 7.99 -0.32 8.98 -1 10 C-0.67 6.7 -0.34 3.4 0 0 Z " fill="#FDF6F3" transform="translate(285,210)"/>
<path d="M0 0 C1.43859375 0.00580078 1.43859375 0.00580078 2.90625 0.01171875 C5.5 0.3125 5.5 0.3125 8.5 2.3125 C8.6875 4.9375 8.6875 4.9375 8.5 7.3125 C3.27822818 10.36914692 -0.93124324 11.21501204 -6.86328125 9.71484375 C-10.01953655 9.23322257 -12.06289165 9.75423873 -15.125 10.625 C-18.99329826 11.66972289 -22.79740388 12.59322421 -26.75 13.25 C-31.29110421 14.03182569 -35.7288287 15.09802449 -40.1875 16.25 C-45.80673204 17.68547185 -51.43476338 19.0007488 -57.125 20.125 C-58.39601563 20.37894531 -59.66703125 20.63289063 -60.9765625 20.89453125 C-64.45062937 21.30664339 -67.10552081 21.08017452 -70.5 20.3125 C-70.5 19.3225 -70.5 18.3325 -70.5 17.3125 C-66.38181982 15.81441948 -62.59903264 14.97797339 -58.25 14.5 C-51.63511811 13.62594055 -45.44480977 11.99878082 -39.04736328 10.1340332 C-33.83489271 8.63208764 -28.69371994 7.57083756 -23.32421875 6.76953125 C-20.16019702 6.25751114 -17.05905999 5.60224516 -13.9375 4.875 C-12.96683594 4.64941406 -11.99617188 4.42382812 -10.99609375 4.19140625 C-8.46158491 3.5122068 -8.46158491 3.5122068 -7.00390625 1.734375 C-4.77759413 -0.37050191 -2.99927534 -0.05240669 0 0 Z " fill="#FDF6F3" transform="translate(338.5,155.6875)"/>
<path d="M0 0 C6.27 0.66 12.54 1.32 19 2 C19 2.66 19 3.32 19 4 C18.34 4 17.68 4 17 4 C17 4.66 17 5.32 17 6 C10.81839396 5.46246904 5.673142 3.45417612 0 1 C0 0.67 0 0.34 0 0 Z " fill="#EACCCE" transform="translate(251,169)"/>
<path d="M0 0 C0.33 0.99 0.66 1.98 1 3 C0.01 3.66 -0.98 4.32 -2 5 C-0.02 5.99 1.96 6.98 4 8 C4 8.66 4 9.32 4 10 C0.1936543 9.32829194 -3.35206816 8.27253436 -7 7 C-7 5.68 -7 4.36 -7 3 C-4.69 2.01 -2.38 1.02 0 0 Z " fill="#EACCCA" transform="translate(247,159)"/>
<path d="M0 0 C0.66 0.99 1.32 1.98 2 3 C-0.3129482 5.3129482 -1.47904875 5.49580975 -4.625 6.125 C-5.44226563 6.29257813 -6.25953125 6.46015625 -7.1015625 6.6328125 C-8.04128906 6.81457031 -8.04128906 6.81457031 -9 7 C-9 6.01 -9 5.02 -9 4 C-6.03 2.68 -3.06 1.36 0 0 Z " fill="#EBCACB" transform="translate(326,128)"/>
<path d="M0 0 C0.75 1.75 0.75 1.75 1 4 C-0.8125 6.25 -0.8125 6.25 -3 8 C-3.66 8 -4.32 8 -5 8 C-5.33 6.68 -5.66 5.36 -6 4 C-4.02 2.68 -2.04 1.36 0 0 Z " fill="#F3B6B7" transform="translate(390,220)"/>
<path d="M0 0 C4.29 1.65 8.58 3.3 13 5 C12.67 5.66 12.34 6.32 12 7 C7.02125936 6.52583422 3.93281242 5.0900669 0 2 C0 1.34 0 0.68 0 0 Z " fill="#EAD0CE" transform="translate(406,150)"/>
<path d="M0 0 C0.33 0.66 0.66 1.32 1 2 C-0.5 4 -0.5 4 -3 6 C-5.75871627 6.35800135 -8.20097524 6.18660165 -11 6 C-7.58983503 3.13546142 -4.09305456 1.65296434 0 0 Z " fill="#EECFD1" transform="translate(288,143)"/>
<path d="M0 0 C-2.92324707 1.94883138 -4.51083018 2.48079727 -7.875 3.125 C-8.71804688 3.29257813 -9.56109375 3.46015625 -10.4296875 3.6328125 C-12.99151915 3.99878845 -15.41609989 4.06482904 -18 4 C-11.89194023 0.71104474 -6.84893235 -0.23617008 0 0 Z " fill="#E8C7C8" transform="translate(304,171)"/>
<path d="M0 0 C-4.15984612 3.89985574 -7.55084591 4.89169747 -13 6 C-12 3 -12 3 -9.78515625 1.796875 C-8.43744141 1.27867187 -8.43744141 1.27867187 -7.0625 0.75 C-6.16660156 0.39421875 -5.27070313 0.0384375 -4.34765625 -0.328125 C-2 -1 -2 -1 0 0 Z " fill="#E8C9CB" transform="translate(266,154)"/>
<path d="M0 0 C0.33 0 0.66 0 1 0 C1 3.63 1 7.26 1 11 C-1 8 -1 8 -1 6 C-2.65 6 -4.3 6 -6 6 C-5.195625 5.38125 -4.39125 4.7625 -3.5625 4.125 C-0.96125481 2.25835959 -0.96125481 2.25835959 0 0 Z " fill="#E9D3D3" transform="translate(392,214)"/>
<path d="M0 0 C-0.639375 0.103125 -1.27875 0.20625 -1.9375 0.3125 C-2.618125 0.539375 -3.29875 0.76625 -4 1 C-4.33 1.99 -4.66 2.98 -5 4 C-7.3125 4.625 -7.3125 4.625 -10 5 C-10.99 4.34 -11.98 3.68 -13 3 C-11.21189234 2.30329584 -9.41937948 1.61788811 -7.625 0.9375 C-6.62726563 0.55464844 -5.62953125 0.17179688 -4.6015625 -0.22265625 C-2 -1 -2 -1 0 0 Z " fill="#ECC8C9" transform="translate(378,225)"/>
<path d="M0 0 C1.98 0.66 3.96 1.32 6 2 C2.25 4 2.25 4 0 4 C-0.33 5.32 -0.66 6.64 -1 8 C-1 7.01 -1 6.02 -1 5 C-1.99 4.67 -2.98 4.34 -4 4 C-2.68 2.68 -1.36 1.36 0 0 Z " fill="#E4C7C7" transform="translate(393,178)"/>
<path d="M0 0 C1.43836751 0.11458693 2.87570966 0.24209116 4.3125 0.375 C5.51326172 0.47941406 5.51326172 0.47941406 6.73828125 0.5859375 C9 1 9 1 12 3 C12 3.66 12 4.32 12 5 C10.37276701 4.54965877 8.74826336 4.08944646 7.125 3.625 C5.76761719 3.24214844 5.76761719 3.24214844 4.3828125 2.8515625 C2 2 2 2 0 0 Z " fill="#EAC8C8" transform="translate(294,185)"/>
<path d="M0 0 C0.763125 0.20625 1.52625 0.4125 2.3125 0.625 C-0.54334773 2.52889849 -2.6186762 3.31962177 -5.875 4.25 C-6.77605469 4.51039063 -7.67710937 4.77078125 -8.60546875 5.0390625 C-9.63607422 5.32910156 -9.63607422 5.32910156 -10.6875 5.625 C-10.6875 4.965 -10.6875 4.305 -10.6875 3.625 C-9.924375 3.33625 -9.16125 3.0475 -8.375 2.75 C-1.35416667 -0.18895349 -1.35416667 -0.18895349 0 0 Z " fill="#E8CFCD" transform="translate(427.6875,167.375)"/>
<path d="M0 0 C0.66 0.99 1.32 1.98 2 3 C-2.1077065 4.58706842 -3.59232396 5.10191901 -8 4 C-5.36 2.68 -2.72 1.36 0 0 Z " fill="#EACCCE" transform="translate(308,135)"/>
<path d="M0 0 C2.97 0.495 2.97 0.495 6 1 C6.33 1.99 6.66 2.98 7 4 C4.69 4 2.38 4 0 4 C0 2.68 0 1.36 0 0 Z " fill="#EEC9C8" transform="translate(348,128)"/>
<path d="M0 0 C2.31 0 4.62 0 7 0 C6.67 0.66 6.34 1.32 6 2 C3.93359375 2.6328125 3.93359375 2.6328125 1.4375 3.125 C0.19806641 3.37636719 0.19806641 3.37636719 -1.06640625 3.6328125 C-1.70449219 3.75398437 -2.34257812 3.87515625 -3 4 C-3 3.34 -3 2.68 -3 2 C-2.01 2 -1.02 2 0 2 C0 1.34 0 0.68 0 0 Z " fill="#E3B6BA" transform="translate(370,235)"/>
<path d="M0 0 C0.33 0 0.66 0 1 0 C1.23053497 2.84326464 1.35903101 4.46145349 -0.25 6.875 C-2 8 -2 8 -4.1875 7.6875 C-4.785625 7.460625 -5.38375 7.23375 -6 7 C-5.195625 6.21625 -4.39125 5.4325 -3.5625 4.625 C-1.01309583 2.28017144 -1.01309583 2.28017144 0 0 Z " fill="#E0B9BC" transform="translate(391,222)"/>
<path d="M0 0 C1.43931117 0.45261358 2.87638999 0.91232979 4.3125 1.375 C5.11300781 1.63023437 5.91351563 1.88546875 6.73828125 2.1484375 C9 3 9 3 12 5 C3.64989059 4.64989059 3.64989059 4.64989059 0.9375 1.9375 C0.628125 1.298125 0.31875 0.65875 0 0 Z " fill="#EBCBCA" transform="translate(296,192)"/>
<path d="M0 0 C0 0.99 0 1.98 0 3 C-2.3125 3.6875 -2.3125 3.6875 -5 4 C-6.8125 2.5625 -6.8125 2.5625 -8 1 C-5.29120665 -0.35439668 -2.99066732 -0.06501451 0 0 Z " fill="#E0C4C6" transform="translate(280,176)"/>
<path d="M0 0 C1.65 0.33 3.3 0.66 5 1 C4.67 1.99 4.34 2.98 4 4 C1.4375 5.1875 1.4375 5.1875 -1 6 C-0.67 4.02 -0.34 2.04 0 0 Z " fill="#E8D1D1" transform="translate(433,162)"/>
<path d="M0 0 C-1 1.5 -1 1.5 -3 3 C-5.71846235 3.27345479 -8.25677199 3.13491285 -11 3 C-8.15930939 0.15930939 -3.81147953 -1.90573977 0 0 Z " fill="#EBC7C6" transform="translate(365,200)"/>
<path d="M0 0 C3 4 3 4 3 7 C2.34 7 1.68 7 1 7 C0.67 8.32 0.34 9.64 0 11 C0 7.37 0 3.74 0 0 Z " fill="#E5C8C9" transform="translate(284,203)"/>
<path d="M0 0 C-0.33 0.66 -0.66 1.32 -1 2 C-4.3 2 -7.6 2 -11 2 C-11 1.67 -11 1.34 -11 1 C-3.375 -1.125 -3.375 -1.125 0 0 Z " fill="#E8C4C6" transform="translate(347,165)"/>
</svg>
